<svg width="50" height="50" viewBox="0 0 50 50" fill="none" xmlns="http://www.w3.org/2000/svg">
<path d="M42.9657 28.7006C43.7543 29.083 44.0826 30.0384 43.6988 30.8347L41.3028 35.8059C40.919 36.6022 39.9686 36.9377 39.18 36.5553L37.0844 35.5392L35.9568 34.9924C35.1682 34.6101 34.8399 33.6546 35.2237 32.8583L37.6197 27.8871C38.0035 27.0909 38.9539 26.7554 39.7425 27.1378L40.7849 27.6432L42.9657 28.7006Z" fill="#FFBA44"/>
<path d="M41.1058 14.7027C41.9348 14.4101 42.8389 14.8485 43.1252 15.6819L44.9126 20.8852C45.1989 21.7186 44.7589 22.6315 43.9299 22.9241L40.9813 23.965L40.5417 24.1201C39.7127 24.4128 38.8085 23.9744 38.5222 23.141L36.7349 17.9377C36.4486 17.1043 36.8885 16.1914 37.7176 15.8988L38.1474 15.747L41.1058 14.7027Z" fill="#FFBA44"/>
<path d="M9.45833 25.8742C10.2873 25.5816 11.1915 26.02 11.4778 26.8534L13.2651 32.0567C13.5514 32.8901 13.1115 33.803 12.2824 34.0956L11.8132 34.2613L8.89424 35.2917C8.06522 35.5843 7.16109 35.1459 6.8748 34.3125L5.08742 29.1092C4.80113 28.2758 5.2411 27.3629 6.07012 27.0703L8.99885 26.0364L9.45833 25.8742Z" fill="#FFBA44"/>
<path d="M35.1247 41.0622C35.411 41.8957 34.971 42.8085 34.142 43.1012L28.9662 44.9282C28.1372 45.2209 27.233 44.7825 26.9468 43.9491L25.9741 41.1176L25.7767 40.5428C25.4904 39.7094 25.9304 38.7966 26.7594 38.5039L31.9352 36.6769C32.7642 36.3842 33.6684 36.8226 33.9546 37.656L34.1455 38.2117L35.1247 41.0622Z" fill="#FFBA44"/>
<path d="M24.2746 9.47614C24.5609 10.3096 24.1209 11.2224 23.2919 11.5151L18.1161 13.3421C17.287 13.6348 16.3829 13.1964 16.0966 12.363L15.8982 11.7854L14.9266 8.95675C14.6403 8.12332 15.0802 7.21047 15.9093 6.91783L21.0851 5.09076C21.9141 4.79812 22.8182 5.23651 23.1045 6.06993L24.0827 8.91762L24.2746 9.47614Z" fill="#FFBA44"/>
<path d="M14.5145 14.004C15.3031 14.3864 15.6314 15.3418 15.2476 16.1381L12.8516 21.1093C12.4678 21.9055 11.5174 22.241 10.7288 21.8587L9.43878 21.2332L7.50559 20.2958C6.71695 19.9134 6.38874 18.958 6.7725 18.1617L9.16848 13.1905C9.55225 12.3943 10.5027 12.0588 11.2913 12.4411L13.7159 13.6167L14.5145 14.004Z" fill="#FFBA44"/>
<path d="M21.0954 43.0452C20.7116 43.8414 19.7612 44.1769 18.9726 43.7945L14.0489 41.4072C13.2602 41.0248 12.932 40.0693 13.3158 39.2731L14.3469 37.1336L14.8842 36.0188C15.268 35.2225 16.2184 34.887 17.0071 35.2694L19.4747 36.4659L21.9308 37.6568C22.7194 38.0392 23.0477 38.9946 22.6639 39.7909L22.125 40.909L21.0954 43.0452Z" fill="#FFBA44"/>
<path d="M35.1117 13.9639C34.7279 14.7601 33.7775 15.0956 32.9889 14.7132L30.5328 13.5224L28.0651 12.3259C27.2765 11.9435 26.9483 10.988 27.3321 10.1918L27.8444 9.12877L28.9005 6.93749C29.2843 6.14124 30.2347 5.80574 31.0234 6.18813L35.9471 8.5755C36.7357 8.95788 37.0639 9.91336 36.6802 10.7096L35.6256 12.8976L35.1117 13.9639Z" fill="#FFBA44"/>
<path d="M38.1474 15.747C37.4305 14.7095 36.5869 13.751 35.6256 12.8976L35.1117 13.9639C34.7279 14.7601 33.7775 15.0956 32.9889 14.7132L30.5328 13.5224L28.3368 18.0785C32.1339 19.9196 33.7141 24.5199 31.8664 28.3536C30.0187 32.1873 25.4427 33.8026 21.6456 31.9615L19.4747 36.4659L21.9308 37.6568C22.7194 38.0392 23.0477 38.9946 22.6639 39.7909L22.125 40.909C23.4078 41.138 24.6999 41.2043 25.9741 41.1176L25.7767 40.5428C25.4904 39.7094 25.9304 38.7966 26.7594 38.5039L31.9352 36.6769C32.7642 36.3842 33.6684 36.8226 33.9546 37.656L34.1455 38.2117C35.219 37.4547 36.2083 36.5604 37.0844 35.5392L35.9568 34.9924C35.1682 34.6101 34.8399 33.6546 35.2237 32.8583L37.6197 27.8871C38.0035 27.0909 38.9539 26.7554 39.7425 27.1378L40.7849 27.6432C40.9925 26.4158 41.0553 25.182 40.9813 23.965L40.5417 24.1201C39.7127 24.4128 38.8085 23.9744 38.5222 23.141L36.7349 17.9377C36.4486 17.1043 36.8885 16.1914 37.7176 15.8988L38.1474 15.747Z" fill="#FFBA44"/>
<path d="M27.8444 9.12877C26.5908 8.90611 25.3285 8.83871 24.0827 8.91762L24.2746 9.47614C24.5609 10.3096 24.1209 11.2224 23.2919 11.5151L18.1161 13.3421C17.287 13.6348 16.3829 13.1964 16.0966 12.363L15.8982 11.7854C15.1239 12.326 14.3929 12.9377 13.7159 13.6167L14.5145 14.004C15.3031 14.3864 15.6314 15.3418 15.2476 16.1381L12.8516 21.1093C12.4678 21.9055 11.5174 22.241 10.7288 21.8587L9.43878 21.2332C9.04659 22.8279 8.9059 24.4463 8.99885 26.0364L9.45833 25.8742C10.2873 25.5816 11.1915 26.02 11.4778 26.8534L13.2651 32.0567C13.5514 32.8901 13.1115 33.803 12.2824 34.0956L11.8132 34.2613C12.5323 35.3075 13.3799 36.2738 14.3469 37.1336L14.8842 36.0188C15.268 35.2225 16.2184 34.887 17.0071 35.2694L19.4747 36.4659L21.6456 31.9615C17.8486 30.1204 16.2683 25.5201 18.1161 21.6864C19.9638 17.8528 24.5398 16.2374 28.3368 18.0785L30.5328 13.5224L28.0651 12.3259C27.2765 11.9435 26.9483 10.988 27.3321 10.1918L27.8444 9.12877Z" fill="#FFBA44"/>
</svg>
