<svg width="50" height="50" viewBox="0 0 50 50" fill="none" xmlns="http://www.w3.org/2000/svg">
<path d="M10.4074 28.5315C11.7602 28.5315 12.7702 28.2862 13.4092 27.8027C14.0414 27.3242 14.478 26.4951 14.7069 25.3386C14.9202 24.2576 14.8389 23.5028 14.4653 23.0955C14.0833 22.6795 13.2574 22.4685 12.0105 22.4685H9.84857L8.65004 28.5315H10.4074ZM3.33629 36C3.23594 36 3.14063 35.9559 3.07683 35.8796C3.01291 35.8034 2.98701 35.7031 3.00619 35.6062L6.18255 19.5392C6.21327 19.3839 6.35175 19.2717 6.51277 19.2717H13.3586C15.5101 19.2717 17.1116 19.846 18.1181 20.9789C19.1301 22.1177 19.4426 23.7097 19.0469 25.7103C18.8859 26.5254 18.6089 27.2824 18.2238 27.9601C17.8381 28.6386 17.3285 29.2664 16.7088 29.8264C15.9669 30.509 15.1273 31.004 14.2155 31.2952C13.3181 31.5826 12.1657 31.7283 10.7902 31.7283H8.0182L7.22657 35.7323C7.19585 35.8878 7.05748 36 6.89647 36H3.33629Z" fill="#FFBA44"/>
<path d="M27.2096 31.7283C27.1091 31.7283 27.0139 31.6842 26.9501 31.608C26.8861 31.5318 26.8602 31.4316 26.8794 31.3346L28.2844 24.2256C28.4181 23.5495 28.3851 23.0642 28.1917 22.8592C28.0733 22.7338 27.7176 22.5236 26.666 22.5236H24.1205L22.3539 31.4607C22.3232 31.6161 22.1847 31.7283 22.0237 31.7283H18.4916C18.3912 31.7283 18.296 31.6842 18.2321 31.608C18.1681 31.5318 18.1422 31.4315 18.1614 31.3346L21.3378 15.2675C21.3685 15.1122 21.507 15 21.668 15H25.2C25.3005 15 25.3957 15.0441 25.4596 15.1203C25.5235 15.1966 25.5494 15.2968 25.5302 15.3938L24.7637 19.2717H27.5021C29.5883 19.2717 31.0029 19.6332 31.8268 20.3771C32.6666 21.136 32.9287 22.3493 32.6057 23.9839L31.1279 31.4607C31.0972 31.6161 30.9588 31.7283 30.7977 31.7283H27.2096Z" fill="#FFBA44"/>
<path d="M38.1945 28.5315C39.5473 28.5315 40.5572 28.2862 41.1962 27.8027C41.8284 27.3243 42.265 26.4952 42.494 25.3386C42.7074 24.2576 42.6261 23.5028 42.2524 23.0955C41.8704 22.6795 41.0444 22.4685 39.7976 22.4685H37.6356L36.4371 28.5315H38.1945ZM31.1234 36C31.0231 36 30.9278 35.9559 30.864 35.8796C30.8001 35.8034 30.7741 35.7031 30.7932 35.6062L33.9696 19.5392C34.0004 19.3839 34.1388 19.2717 34.2999 19.2717H41.1457C43.2973 19.2717 44.8986 19.846 45.9053 20.9789C46.9172 22.1176 47.2296 23.7095 46.834 25.7103C46.6728 26.5254 46.396 27.2824 46.0108 27.9601C45.6252 28.6386 45.1156 29.2664 44.4958 29.8264C43.754 30.509 42.9144 31.004 42.0026 31.2952C41.1052 31.5826 39.9527 31.7283 38.5773 31.7283H35.8051L35.0138 35.7323C34.983 35.8878 34.8446 36 34.6835 36H31.1234Z" fill="#FFBA44"/>
</svg>
